{"title":"Toy Story 3 2010 BRRip XVID AC3-lOVE","uid":5886868,"size":1583575967,"categoryP":"video","categoryS":"movies","magnet":"?xt=urn:btih:588467b74be20376eea013c0c80e6adb5963a61a&amp;dn=Toy+Story+3+2010+BRRip+XVID+AC3-lOVE&amp;tr=udp%3A%2F%2Ftracker.openbittorrent.com%3A80&amp;tr=udp%3A%2F%2Fopen.demonii.com%3A1337&amp;tr=udp%3A%2F%2Ftracker.coppersurfer.tk%3A6969&amp;tr=udp%3A%2F%2Fexodus.desync.com%3A6969","seeders":0,"leechers":1,"uploader":"IwannaFan2","files":6,"time":1287087859,"description":"Filename:\nToy Story 3 2010 BRRip XVID AC3-lOVE\n &lt;a href=&quot;\nhttp://www.imdb.com/title/tt0435761/&quot; rel=&quot;nofollow&quot; target=&quot;_NEW&quot;&gt;\nhttp://www.imdb.com/title/tt0435761/&lt;/a&gt;\n\nVideo\nID                               : 0\nFormat                           : MPEG-4 Visual\nFormat profile                   : AdvancedSimple@L5\nFormat settings, BVOP            : Yes\nFormat settings, QPel            : No\nFormat settings, GMC             : No warppoints\nFormat settings, Matrix          : Default (H.263)\nMuxing mode                      : Packed bitstream\nCodec ID                         : XVID\nCodec ID/Hint                    : XviD\nDuration                         : 1h 42mn\nBit rate                         : 1 587 Kbps\nWidth                            : 720 pixels\nHeight                           : 400 pixels\nDisplay aspect ratio             : 16:9\nFrame rate                       : 23.976 fps\nResolution                       : 24 bits\nColorimetry                      : 4:2:0\nScan type                        : Progressive\nBits/(Pixel*Frame)               : 0.230\nStream size                      : 1.14 GiB (78%)\nWriting library                  : XviD 1.2.1 (UTC 2008-12-04)\n\nAudio\nID                               : 1\nFormat                           : AC-3\nFormat/Info                      : Audio Coding 3\nCodec ID                         : 2000\nDuration                         : 1h 42mn\nBit rate mode                    : Constant\nBit rate                         : 448 Kbps\nChannel(s)                       : 6 channels\nChannel positions                : Front: L C R, Surround: L R, LFE\nSampling rate                    : 48.0 KHz\nStream size                      : 329 MiB (22%)\nAlignment                        : Split accross interleaves\nInterleave, duration             : 64 ms (1.53 video frames)\nInterleave, preload duration     : 500 ms\n\nHardcoded english subtitles (For the Spanish parts only)","torrent":{"xt":"urn:btih:588467b74be20376eea013c0c80e6adb5963a61a","amp;dn":"Toy+Story+3+2010+BRRip+XVID+AC3-lOVE","amp;tr":["udp%3A%2F%2Ftracker.openbittorrent.com%3A80","udp%3A%2F%2Fopen.demonii.com%3A1337","udp%3A%2F%2Ftracker.coppersurfer.tk%3A6969","udp%3A%2F%2Fexodus.desync.com%3A6969"],"infoHash":"588467b74be20376eea013c0c80e6adb5963a61a","infoHashBuffer":{"type":"Buffer","data":[88,132,103,183,75,226,3,118,238,160,19,192,200,14,106,219,89,99,166,26]},"announce":[],"urlList":[]}}